# xmcd CD database file
#
# Track frame offsets:
#	150
#	11530
#	32635
#	50557
#	59740
#	68400
#	79945
#	89185
#	104502
#	116160
#	129350
#	146877
#	160005
#	169162
#	178592
#	190812
#	199477
#	214065
#	229257
#	243712
#	255707
#	271837
#	290442
#
# Disc length: 4440 seconds
#
# Revision: 0
# Processed by: cddbd v1.5.1PL2 Copyright (c) Steve Scherf et al.
# Submitted via: CDex 1.51
#
DISCID=61115617
DTITLE=ウィーン少年合唱団 - クリスマス・アルバム
DYEAR=2003
DGENRE=Chorus
TTITLE0=そりすべり／トロイカ
TTITLE1=マリアの御子
TTITLE2=ハッピー・クリスマス（ウォー・イズ・オーヴァー）
TTITLE3=あなたに楽しいクリスマスを
TTITLE4=ザ・クリスマス・ソング
TTITLE5=ジングル・ベル
TTITLE6=ジングル・ベル・ロック
TTITLE7=ウクライナの鐘の音
TTITLE8=ウェックスフォード・キャロル
TTITLE9=スォー・ガン
TTITLE10=オー・ホーリー・ナイト
TTITLE11=ホワイト・クリスマス
TTITLE12=ウィンター・ワンダーランド
TTITLE13=レット・イット・スノウ、レット・イット・スノウ
TTITLE14=サンタが街にやってくる
TTITLE15=ロッキン・アラウンド・ザ・クリスマス・ツリー
TTITLE16=リトル・ドラマー・ボーイ／ピース・オン・アース
TTITLE17=ワンダフル・クリスマス・タイム
TTITLE18=赤鼻のトナカイ
TTITLE19=ウィ・ウィッシュ・ユー・ア・メリー・クリスマス
TTITLE20=コヴェントリー・キャロル
TTITLE21=マブネの中で／きよしこの夜
TTITLE22=CCCD
EXTD=YEAR: 2003
EXTT0=
EXTT1=
EXTT2=
EXTT3=
EXTT4=
EXTT5=
EXTT6=
EXTT7=
EXTT8=
EXTT9=
EXTT10=
EXTT11=
EXTT12=
EXTT13=
EXTT14=
EXTT15=
EXTT16=
EXTT17=
EXTT18=
EXTT19=
EXTT20=
EXTT21=
EXTT22=
PLAYORDER=
